# xmcd
#
# Track frame offsets:
#	150
#	16840
#	34760
#	48390
#	64860
#	83600
#	96983
#	116535
#	131330
#	145560
#
# Disc length: 2116 seconds
# Revision: 6
# Processed by: cddbd v1.5.2PL0 Copyright (c) Steve Scherf et al.
# Submitted via: dBpowerAMP V12.0
#
DISCID=7808420a
DTITLE=Emmylou Harris - Songs of the West
DYEAR=1994
DGENRE=Country
TTITLE0=I'll Be Your San Antone Rose
TTITLE1=Even Cowgirls Get the Blues
TTITLE2=Amarillo
TTITLE3=The Sweetheart of the Rodeo
TTITLE4=Queen of the Silver Dollar
TTITLE5=One Paper Kid
TTITLE6=Rose of Cimarron
TTITLE7=Spanish Is a Loving Tongue
TTITLE8=Cattle Call
TTITLE9=Montana Cowgirl
EXTD=
EXTT0=
EXTT1=
EXTT2=
EXTT3=
EXTT4=
EXTT5=
EXTT6=
EXTT7=
EXTT8=
EXTT9=
PLAYORDER=
